<svg height="480pt" viewBox="0 -88 480.32182 480" width="480pt" xmlns="http://www.w3.org/2000/svg"><path d="m328.320312.160156c-31.589843-.066406-62.402343 9.816406-88.0625 28.25-63.0625-44.976562-149.855468-35.335937-201.511718 22.375-51.660156 57.710938-51.660156 145.039063 0 202.753906 51.65625 57.710938 138.449218 67.347657 201.511718 22.375 25.660157 18.429688 56.472657 28.3125 88.0625 28.246094 83.949219 0 152-68.050781 152-152 0-83.945312-68.050781-152-152-152zm109.035157 188.855469c3.394531 3.449219 4.273437 8.652344 2.199219 13.027344-1.894532 4.476562-6.441407 7.242187-11.289063 6.871093-8.527344-.425781-16.777344 3.097657-22.371094 9.554688-5.589843 6.453125-7.902343 15.117188-6.269531 23.5.914062 4.730469-1.140625 9.539062-5.195312 12.144531-4.050782 2.605469-9.28125 2.476563-13.203126-.320312-6.945312-4.960938-15.785156-6.457031-23.972656-4.054688-8.191406 2.402344-14.820312 8.4375-17.980468 16.367188-1.78125 4.484375-6.117188 7.429687-10.945313 7.429687-4.824219 0-9.160156-2.945312-10.941406-7.429687-3.160157-7.929688-9.792969-13.964844-17.980469-16.367188-8.1875-2.402343-17.027344-.90625-23.972656 4.054688-3.328125 2.472656-7.738282 2.941406-11.511719 1.222656 15.015625-16.199219 26.320313-35.476563 33.121094-56.496094 23.339843 15.816407 54.800781 11.8125 73.433593-9.34375 18.636719-21.15625 18.636719-52.871093 0-74.027343-18.632812-21.160157-50.09375-25.164063-73.433593-9.347657-4.957031-15.289062-12.316407-29.695312-21.800781-42.671875 5.847656-4.671875 9.542968-11.527344 10.222656-18.984375.453125-4.796875 3.785156-8.835937 8.410156-10.195312 4.625-1.355469 9.609375.242187 12.582031 4.035156 5.265625 6.71875 13.328125 10.644531 21.863281 10.644531 8.539063 0 16.601563-3.925781 21.867188-10.644531 2.972656-3.792969 7.960938-5.390625 12.585938-4.03125s7.953124 5.398437 8.40625 10.199219c.796874 8.503906 5.460937 16.164062 12.644531 20.777344 7.183593 4.613281 16.089843 5.667968 24.152343 2.855468 4.554688-1.578125 9.613282-.222656 12.769532 3.417969 3.15625 3.644531 3.773437 8.84375 1.558594 13.125-3.925782 7.582031-4.152344 16.546875-.605469 24.3125s10.464843 13.46875 18.765625 15.464844c4.691406 1.125 8.21875 4.992187 8.90625 9.765625.6875 4.773437-1.605469 9.480468-5.785156 11.882812-7.402344 4.253906-12.4375 11.679688-13.652344 20.132813s1.523437 16.992187 7.429687 23.164062zm-43.632813 82.328125c-17.117187 9.390625-36.0625 14.960938-55.535156 16.320312 7.277344-2.730468 13.070312-8.40625 15.941406-15.628906 1.339844-3.367187 4.152344-5.925781 7.625-6.945312 3.472656-1.019532 7.222656-.386719 10.167969 1.71875 6.308594 4.507812 14.21875 6.152344 21.800781 4.535156zm-75 16.433594c-19.5-1.296875-38.476562-6.839844-55.609375-16.238282 7.546875 1.585938 15.410157-.136718 21.601563-4.730468 2.941406-2.105469 6.691406-2.738282 10.164062-1.71875 3.472656 1.019531 6.28125 3.578125 7.617188 6.945312 2.914062 7.324219 8.816406 13.050782 16.226562 15.742188zm-17.296875-164.921875c15.90625-14.773438 40.691407-14.167969 55.855469 1.371093 15.160156 15.535157 15.160156 40.332032 0 55.871094-15.164062 15.539063-39.949219 16.144532-55.855469 1.367188 3.859375-19.34375 3.859375-39.261719 0-58.609375zm78.34375-96.527344c15.082031 6.226563 28.917969 15.113281 40.855469 26.234375-5.816406-1.972656-12.121094-1.941406-17.917969.078125-3.417969 1.1875-7.191406.734375-10.234375-1.222656-3.042968-1.953125-5.019531-5.199219-5.359375-8.800781-.578125-6.09375-3.160156-11.820313-7.34375-16.289063zm64.441407 82.183594c-3.519532-.84375-6.453126-3.261719-7.957032-6.554688-1.507812-3.292969-1.414062-7.09375.25-10.308593 2.894532-5.601563 3.789063-12.023438 2.53125-18.199219 9.816406 13.777343 16.960938 29.269531 21.0625 45.679687-3.863281-5.3125-9.5-9.074218-15.886718-10.609375zm-91.890626-90.101563c-5.832031 1.527344-11 4.925782-14.71875 9.671875-2.308593 2.726563-5.699218 4.296875-9.273437 4.296875-3.570313 0-6.960937-1.570312-9.269531-4.296875-3.769532-4.8125-9.035156-8.238281-14.960938-9.738281 7.996094-1.4375 16.101563-2.167969 24.222656-2.183594 8.050782.039063 16.082032.792969 24 2.25zm-75.359374 7.847656c-4.226563 4.476563-6.839844 10.238282-7.421876 16.367188-.300781 3.167969-1.882812 6.074219-4.378906 8.046875-3.75-4.167969-7.730468-8.128906-11.917968-11.863281 7.464843-4.960938 15.410156-9.167969 23.710937-12.550782zm-152.398438 259.039063 1.421875-1.421875-16-16-9.839844 9.839844c-22.441406-9.429688-41.957031-24.683594-56.527343-44.1875l10.402343-10.398438-11.355469-11.253906-8.070312 8.054688c-16.328125-27.960938-21.964844-60.894532-15.871094-92.695313l7.949219 7.949219 11.3125-11.308594-14.621094-14.617188c6.945313-20.78125 18.800781-39.578124 34.558594-54.800781l8.726563 8.726563 11.3125-11.308594-7.824219-7.824219c38.296875-29.371093 89.347656-36.078125 133.929687-17.601562l-9.417968 9.417969 11.3125 11.308593 13.273437-13.269531c23.761719 13.527344 42.917969 33.871094 55 58.398438l-15.585937 15.585937 11.3125 11.3125 10.9375-10.929687c17.457031 50.492187 3.484374 106.53125-35.640626 142.910156l-15.296874-15.292969-11.3125 11.3125 14.265624 14.261719c-31.046874 23.09375-70.503906 31.773437-108.375 23.847656zm286.304688-25.296875c4.292968-6.128906 5.90625-13.742188 4.46875-21.085938-.699219-3.554687.285156-7.234374 2.664062-9.96875 2.332031-2.792968 5.855469-4.296874 9.480469-4.046874 7.316406.355468 14.46875-2.207032 19.898437-7.121094-9.144531 16.433594-21.574218 30.808594-36.519531 42.222656zm45.765624-63.152344c-.0625-7.050781-2.820312-13.8125-7.710937-18.894531-2.503906-2.613281-3.664063-6.234375-3.148437-9.820313.515624-3.582031 2.648437-6.726562 5.789062-8.53125 5.808594-3.335937 10.210938-8.671874 12.382812-15.007812.136719 2.519531.382813 5.015625.382813 7.566406-.03125 15.222656-2.636719 30.332032-7.703125 44.6875zm0 0"/><path d="m114.667969 43.875 15.996093-15.996094 11.316407 11.3125-16 15.996094zm0 0"/><path d="m88.320312 81.527344h16v16h-16zm0 0"/><path d="m160.320312 57.527344h16v16h-16zm0 0"/><path d="m210.667969 79.183594 11.3125-11.3125 15.996093 15.996094-11.3125 11.316406zm0 0"/><path d="m202.664062 107.875-7.878906 7.878906c-17.355468-20.308594-46.644531-25.507812-69.929687-12.421875-23.285157 13.089844-34.066407 40.816407-25.742188 66.195313h-10.792969v16h16v-4.671875c10.089844 16.90625 28.3125 27.273437 48 27.304687 1.066407 0 2.105469-.101562 3.160157-.160156l15.203125 15.203125 11.308594-11.3125-8.070313-8.074219c13.875-5.785156 24.832031-16.914062 30.402344-30.875 5.570312-13.960937 5.28125-29.578125-.800781-43.324218l10.398437-10.398438zm-50.34375 84.285156c-22.089843 0-40-17.90625-40-40 0-22.089844 17.910157-40 40-40 22.09375 0 40 17.910156 40 40-.023437 22.082032-17.917968 39.976563-40 40zm0 0"/><path d="m232.320312 129.527344h16v16h-16zm0 0"/><path d="m218.664062 199.1875 11.3125-11.3125 16 15.996094-11.3125 11.316406zm0 0"/><path d="m170.664062 251.875 16-15.996094 11.3125 11.3125-16 15.996094zm0 0"/><path d="m90.664062 231.191406 11.3125-11.316406 15.996094 16-11.3125 11.3125zm0 0"/><path d="m34.667969 175.191406 11.3125-11.316406 15.996093 16-11.3125 11.3125zm0 0"/><path d="m64.320312 121.527344h16v16h-16zm0 0"/></svg>